# xmcd
#
# Track frame offsets:
#	150
#	17991
#	31962
#	48005
#	66982
#	85473
#	101593
#	119766
#	138474
#	158030
#	174921
#	194063
#	214120
#	231462
#	253193
#
# Disc length: 3652 seconds
#
# Revision: 1
# Processed by: cddbd v1.5.2PL0 Copyright (c) Steve Scherf et al.
# Submitted via: audiograbber 1.83.01
#
DISCID=dd0e420f
DTITLE=Taylor Swift - Chartbuster Karaoke
DYEAR=2009
DGENRE=Country
TTITLE0=Should've Said No
TTITLE1=Picture To Burn
TTITLE2=Tell Me Why
TTITLE3=Love Story
TTITLE4=White Horse
TTITLE5=Our Song
TTITLE6=You Belong With Me
TTITLE7=Tim McGraw
TTITLE8=The Best Day
TTITLE9=I'm Only Me When I'm With You
TTITLE10=Fearless
TTITLE11=Hey Stephen
TTITLE12=Teardrops On My Shoulder
TTITLE13=Change
TTITLE14=Breathe
EXTD=Karaoke
EXTT0=
EXTT1=
EXTT2=
EXTT3=
EXTT4=
EXTT5=
EXTT6=
EXTT7=
EXTT8=
EXTT9=
EXTT10=
EXTT11=
EXTT12=
EXTT13=
EXTT14=
PLAYORDER=
